<?xml version="1.0" encoding="utf-8"?>
<!-- Generator: Adobe Illustrator 23.0.5, SVG Export Plug-In . SVG Version: 6.00 Build 0)  -->
<svg version="1.1" xmlns="http://www.w3.org/2000/svg" xmlns:xlink="http://www.w3.org/1999/xlink" x="0px" y="0px"
	 viewBox="0 0 320 200" style="enable-background:new 0 0 320 200;" xml:space="preserve">
<style type="text/css">
	.st0{fill:#F6F6F6;}
	.st1{fill:none;stroke:#AAAAAA;stroke-width:1.5;stroke-linecap:round;stroke-linejoin:round;}
	.st2{opacity:0.1;}
	.st3{fill:#942E8F;}
	.st4{fill:#333333;}
	.st5{font-family:'SourceSansPro-Bold';}
	.st6{font-size:20px;}
</style>
<g id="Ebene_1">
	<g>
		<path class="st0" d="M300,190H20c-5.5,0-10-4.5-10-10V20c0-5.5,4.5-10,10-10h280c5.5,0,10,4.5,10,10v160
			C310,185.5,305.5,190,300,190z"/>
	</g>
</g>
<g id="Ebene_2">
	<polyline class="st1" points="39,109 30,100 39,91 	"/>
	<polyline class="st1" points="281,91 290,100 281,109 	"/>
</g>
<g id="Ebene_3">
	<path class="st2" d="M223,82H97c-3.9,0-7-3.1-7-7v0c0-3.9,3.1-7,7-7h126c3.9,0,7,3.1,7,7v0C230,78.9,226.9,82,223,82z"/>
	<path class="st2" d="M243,102H77c-3.9,0-7-3.1-7-7v0c0-3.9,3.1-7,7-7h166c3.9,0,7,3.1,7,7v0C250,98.9,246.9,102,243,102z"/>
	<path class="st2" d="M198,122h-76c-3.9,0-7-3.1-7-7v0c0-3.9,3.1-7,7-7h76c3.9,0,7,3.1,7,7v0C205,118.9,201.9,122,198,122z"/>
	<path class="st3" d="M200,167h-80c-2.8,0-5-2.2-5-5v-14c0-2.8,2.2-5,5-5h80c2.8,0,5,2.2,5,5v14C205,164.8,202.8,167,200,167z"/>
	<text transform="matrix(1 0 0 1 96.9348 47.3335)" class="st4 st5 st6">Elysium Slider</text>
</g>
</svg>
