<?xml version="1.0" encoding="utf-8"?>
<!-- Generator: Adobe Illustrator 23.0.5, SVG Export Plug-In . SVG Version: 6.00 Build 0)  -->
<svg version="1.1" id="Ebene_1" xmlns="http://www.w3.org/2000/svg" xmlns:xlink="http://www.w3.org/1999/xlink" x="0px" y="0px"
	 viewBox="0 0 320 200" style="enable-background:new 0 0 320 200;" xml:space="preserve">
<style type="text/css">
	.st0{fill:#F6F6F6;}
	.st1{fill:none;stroke:#AAAAAA;stroke-width:1.5;stroke-linecap:round;stroke-linejoin:round;}
	.st2{opacity:0.1;enable-background:new    ;}
	.st3{fill:#942E8F;}
	.st4{enable-background:new    ;}
	.st5{fill:#333333;}
</style>
<g>
	<g>
		<path class="st0" d="M300,190H20c-5.5,0-10-4.5-10-10V20c0-5.5,4.5-10,10-10h280c5.5,0,10,4.5,10,10v160
			C310,185.5,305.5,190,300,190z"/>
	</g>
</g>
<g>
	<polyline class="st1" points="39,109 30,100 39,91 	"/>
	<polyline class="st1" points="281,91 290,100 281,109 	"/>
</g>
<g id="Ebene_3">
	<path class="st2" d="M223,82H97c-3.9,0-7-3.1-7-7l0,0c0-3.9,3.1-7,7-7h126c3.9,0,7,3.1,7,7l0,0C230,78.9,226.9,82,223,82z"/>
	<path class="st2" d="M243,102H77c-3.9,0-7-3.1-7-7l0,0c0-3.9,3.1-7,7-7h166c3.9,0,7,3.1,7,7l0,0C250,98.9,246.9,102,243,102z"/>
	<path class="st2" d="M198,122h-76c-3.9,0-7-3.1-7-7l0,0c0-3.9,3.1-7,7-7h76c3.9,0,7,3.1,7,7l0,0C205,118.9,201.9,122,198,122z"/>
	<path class="st3" d="M200,167h-80c-2.8,0-5-2.2-5-5v-14c0-2.8,2.2-5,5-5h80c2.8,0,5,2.2,5,5v14C205,164.8,202.8,167,200,167z"/>
	<g class="st4">
		<path class="st5" d="M98.5,47.3v-13h8.2v2.5h-5.2v2.6h4.4v2.5h-4.4v3h5.4v2.5H98.5z"/>
		<path class="st5" d="M111.9,47.6c-0.5,0-0.9-0.1-1.3-0.2c-0.3-0.2-0.6-0.4-0.8-0.7c-0.2-0.3-0.4-0.6-0.5-1
			c-0.1-0.4-0.1-0.9-0.1-1.4V33.3h2.9v11.1c0,0.3,0.1,0.5,0.2,0.6c0.1,0.1,0.2,0.2,0.3,0.2c0.1,0,0.1,0,0.2,0c0,0,0.1,0,0.2,0
			l0.4,2.2c-0.2,0.1-0.4,0.1-0.6,0.2C112.5,47.6,112.2,47.6,111.9,47.6z"/>
		<path class="st5" d="M116,51.2c-0.3,0-0.6,0-0.8,0c-0.2,0-0.4-0.1-0.6-0.2l0.5-2.2c0.1,0,0.2,0.1,0.3,0.1c0.1,0,0.2,0,0.3,0
			c0.5,0,0.9-0.1,1.1-0.4s0.5-0.6,0.6-0.9l0.1-0.5l-3.8-9.7h3l1.4,4.3c0.1,0.5,0.3,0.9,0.4,1.4c0.1,0.5,0.2,0.9,0.4,1.4h0.1
			c0.1-0.5,0.2-0.9,0.3-1.4c0.1-0.5,0.2-0.9,0.4-1.4l1.2-4.3h2.8l-3.4,10c-0.2,0.6-0.5,1.2-0.8,1.7c-0.3,0.5-0.6,0.9-0.9,1.2
			c-0.3,0.3-0.7,0.6-1.2,0.7C117.1,51.1,116.6,51.2,116,51.2z"/>
		<path class="st5" d="M128.3,47.6c-0.7,0-1.3-0.1-2-0.4c-0.7-0.3-1.3-0.6-1.8-1l1.3-1.8c0.5,0.3,0.9,0.6,1.3,0.8
			c0.4,0.2,0.8,0.3,1.3,0.3c0.4,0,0.8-0.1,1-0.2c0.2-0.1,0.3-0.4,0.3-0.6c0-0.2-0.1-0.3-0.2-0.4c-0.1-0.1-0.3-0.2-0.5-0.3
			c-0.2-0.1-0.4-0.2-0.7-0.3c-0.2-0.1-0.5-0.2-0.7-0.3c-0.3-0.1-0.6-0.3-0.9-0.4c-0.3-0.2-0.6-0.4-0.8-0.6c-0.3-0.2-0.5-0.5-0.6-0.8
			c-0.2-0.3-0.2-0.7-0.2-1.1c0-0.5,0.1-0.9,0.3-1.3s0.4-0.7,0.8-1c0.3-0.3,0.7-0.5,1.2-0.6c0.5-0.2,1-0.2,1.6-0.2
			c0.8,0,1.4,0.1,2,0.4c0.6,0.3,1.1,0.5,1.5,0.9l-1.3,1.8c-0.4-0.3-0.7-0.5-1.1-0.6s-0.7-0.2-1-0.2c-0.7,0-1.1,0.3-1.1,0.8
			c0,0.2,0.1,0.3,0.2,0.4s0.3,0.2,0.4,0.3c0.2,0.1,0.4,0.2,0.6,0.3c0.2,0.1,0.5,0.2,0.7,0.3c0.3,0.1,0.6,0.3,0.9,0.4
			s0.6,0.3,0.9,0.6c0.3,0.2,0.5,0.5,0.6,0.8s0.2,0.7,0.2,1.2s-0.1,0.9-0.3,1.3c-0.2,0.4-0.4,0.7-0.8,1c-0.3,0.3-0.8,0.5-1.3,0.7
			C129.5,47.5,128.9,47.6,128.3,47.6z"/>
		<path class="st5" d="M135.7,36c-0.5,0-0.9-0.1-1.2-0.4c-0.3-0.3-0.5-0.7-0.5-1.1s0.2-0.8,0.5-1.1c0.3-0.3,0.7-0.4,1.2-0.4
			c0.5,0,0.9,0.1,1.2,0.4c0.3,0.3,0.5,0.6,0.5,1.1s-0.2,0.8-0.5,1.1C136.6,35.8,136.2,36,135.7,36z M134.2,47.3v-9.9h2.9v9.9H134.2z
			"/>
		<path class="st5" d="M142.7,47.6c-1.1,0-1.9-0.4-2.4-1.1c-0.5-0.7-0.7-1.7-0.7-2.9v-6.2h2.9v5.8c0,0.7,0.1,1.2,0.3,1.5
			c0.2,0.3,0.5,0.4,0.9,0.4c0.4,0,0.7-0.1,0.9-0.3c0.3-0.2,0.5-0.5,0.8-0.8v-6.6h2.9v9.9h-2.4l-0.2-1.4h-0.1
			c-0.4,0.5-0.9,0.9-1.4,1.2C144,47.4,143.4,47.6,142.7,47.6z"/>
		<path class="st5" d="M151.1,47.3v-9.9h2.4l0.2,1.3h0.1c0.4-0.4,0.9-0.8,1.3-1.1s1-0.5,1.7-0.5c0.7,0,1.3,0.1,1.7,0.4
			c0.4,0.3,0.8,0.7,1,1.2c0.4-0.5,0.9-0.8,1.4-1.2c0.5-0.3,1.1-0.5,1.7-0.5c1.1,0,1.9,0.4,2.4,1.1s0.8,1.7,0.8,2.9v6.2h-2.9v-5.8
			c0-0.7-0.1-1.2-0.3-1.5s-0.5-0.4-0.9-0.4c-0.5,0-1.1,0.3-1.7,1v6.7h-2.9v-5.8c0-0.7-0.1-1.2-0.3-1.5s-0.5-0.4-0.9-0.4
			c-0.5,0-1.1,0.3-1.7,1v6.7H151.1z"/>
		<path class="st5" d="M176.4,47.6c-0.9,0-1.7-0.2-2.5-0.5c-0.8-0.3-1.6-0.8-2.3-1.4l1.7-2c0.5,0.4,1,0.7,1.5,1
			c0.6,0.3,1.1,0.4,1.7,0.4c0.6,0,1.1-0.1,1.4-0.3s0.5-0.5,0.5-0.9c0-0.2,0-0.4-0.1-0.5s-0.2-0.3-0.4-0.4c-0.2-0.1-0.4-0.2-0.6-0.3
			s-0.5-0.2-0.8-0.3l-1.7-0.7c-0.3-0.1-0.7-0.3-1-0.5c-0.3-0.2-0.6-0.5-0.8-0.8c-0.2-0.3-0.4-0.6-0.6-1c-0.1-0.4-0.2-0.8-0.2-1.3
			c0-0.5,0.1-1,0.3-1.5c0.2-0.5,0.5-0.9,1-1.2c0.4-0.4,0.9-0.6,1.5-0.8c0.6-0.2,1.2-0.3,1.9-0.3c0.8,0,1.5,0.1,2.3,0.4
			c0.7,0.3,1.4,0.7,1.9,1.3l-1.5,1.9c-0.4-0.3-0.9-0.6-1.3-0.8c-0.4-0.2-0.9-0.3-1.4-0.3c-0.5,0-0.9,0.1-1.2,0.3
			c-0.3,0.2-0.5,0.5-0.5,0.9c0,0.2,0,0.4,0.1,0.5c0.1,0.1,0.2,0.3,0.4,0.4c0.2,0.1,0.4,0.2,0.6,0.3c0.2,0.1,0.5,0.2,0.8,0.3l1.7,0.7
			c0.8,0.3,1.4,0.8,1.9,1.3c0.5,0.6,0.7,1.3,0.7,2.2c0,0.5-0.1,1.1-0.3,1.5c-0.2,0.5-0.5,0.9-1,1.3c-0.4,0.4-0.9,0.7-1.6,0.9
			S177.2,47.6,176.4,47.6z"/>
		<path class="st5" d="M186,47.6c-0.5,0-0.9-0.1-1.3-0.2s-0.6-0.4-0.8-0.7c-0.2-0.3-0.4-0.6-0.4-1c-0.1-0.4-0.1-0.9-0.1-1.4V33.3
			h2.9v11.1c0,0.3,0.1,0.5,0.2,0.6s0.2,0.2,0.3,0.2c0.1,0,0.1,0,0.2,0s0.1,0,0.2,0l0.4,2.2c-0.2,0.1-0.4,0.1-0.6,0.2
			C186.7,47.6,186.4,47.6,186,47.6z"/>
		<path class="st5" d="M190.5,36c-0.5,0-0.9-0.1-1.2-0.4c-0.3-0.3-0.5-0.7-0.5-1.1s0.2-0.8,0.5-1.1c0.3-0.3,0.7-0.4,1.2-0.4
			c0.5,0,0.9,0.1,1.2,0.4c0.3,0.3,0.5,0.6,0.5,1.1s-0.2,0.8-0.5,1.1C191.4,35.8,191,36,190.5,36z M189.1,47.3v-9.9h2.9v9.9H189.1z"
			/>
		<path class="st5" d="M198.1,47.6c-0.6,0-1.2-0.1-1.7-0.4s-0.9-0.6-1.3-1c-0.4-0.4-0.6-1-0.8-1.6c-0.2-0.6-0.3-1.4-0.3-2.2
			s0.1-1.5,0.3-2.2c0.2-0.6,0.5-1.2,0.9-1.6c0.4-0.4,0.8-0.8,1.3-1s1-0.4,1.5-0.4c0.6,0,1,0.1,1.4,0.3c0.4,0.2,0.7,0.4,1.1,0.8
			l-0.1-1.5v-3.4h2.9v14H201l-0.2-1h-0.1c-0.3,0.3-0.8,0.6-1.2,0.9C199.1,47.5,198.6,47.6,198.1,47.6z M198.9,45.2
			c0.3,0,0.6-0.1,0.9-0.2c0.3-0.1,0.5-0.4,0.8-0.7v-4.1c-0.3-0.2-0.5-0.4-0.8-0.5c-0.3-0.1-0.6-0.1-0.8-0.1c-0.5,0-0.9,0.2-1.2,0.7
			c-0.4,0.4-0.5,1.1-0.5,2.1c0,1,0.2,1.7,0.5,2.2C197.9,44.9,198.3,45.2,198.9,45.2z"/>
		<path class="st5" d="M210.5,47.6c-0.7,0-1.4-0.1-2-0.4c-0.6-0.2-1.1-0.6-1.6-1s-0.8-1-1.1-1.6c-0.3-0.6-0.4-1.4-0.4-2.2
			c0-0.8,0.1-1.5,0.4-2.2s0.6-1.2,1-1.6c0.4-0.4,0.9-0.8,1.5-1c0.6-0.2,1.1-0.4,1.7-0.4c0.7,0,1.3,0.1,1.8,0.4c0.5,0.2,1,0.6,1.3,1
			c0.4,0.4,0.6,0.9,0.8,1.5c0.2,0.6,0.3,1.2,0.3,1.9c0,0.3,0,0.5,0,0.8c0,0.2-0.1,0.4-0.1,0.5h-5.9c0.1,0.7,0.4,1.3,0.9,1.6
			s1,0.5,1.7,0.5c0.7,0,1.4-0.2,2.1-0.7l1,1.8c-0.5,0.3-1.1,0.6-1.7,0.8C211.7,47.5,211.1,47.6,210.5,47.6z M208.3,41.3h3.6
			c0-0.6-0.1-1-0.4-1.4c-0.3-0.3-0.7-0.5-1.3-0.5c-0.5,0-0.9,0.2-1.2,0.5C208.6,40.2,208.4,40.7,208.3,41.3z"/>
		<path class="st5" d="M216.4,47.3v-9.9h2.4l0.2,1.7h0.1c0.4-0.7,0.8-1.2,1.3-1.5c0.5-0.3,1-0.5,1.5-0.5c0.3,0,0.5,0,0.7,0
			c0.2,0,0.3,0.1,0.5,0.2l-0.5,2.5c-0.2-0.1-0.4-0.1-0.5-0.1c-0.2,0-0.3,0-0.6,0c-0.4,0-0.8,0.1-1.2,0.4c-0.4,0.3-0.7,0.7-1,1.4v5.8
			H216.4z"/>
	</g>
</g>
</svg>
